<svg xmlns="http://www.w3.org/2000/svg" width="80" height="80" viewBox="0 0 80 80">
  <g id="aziendale" transform="translate(-129 -3194)">
    <path id="Path_4333" data-name="Path 4333" d="M40,0A40,40,0,1,1,0,40,40,40,0,0,1,40,0Z" transform="translate(129 3194)" fill="#dc582a"/>
    <g id="XMLID_1_" transform="translate(148.829 3213.145)">
      <path id="Path_4279" data-name="Path 4279" d="M14.361,9.09,29.535,12.1a2.545,2.545,0,0,1,2.05,2.515V32.187A2.58,2.58,0,0,1,29,34.77H13.5a.853.853,0,0,0,.861-.861v-.861H29a.864.864,0,0,0,.861-.861V14.619a.865.865,0,0,0-.672-.844L14.361,10.847Z" transform="translate(9.752 6.255)" fill="#fff"/>
      <path id="Path_4280" data-name="Path 4280" d="M21.306,14a.861.861,0,0,1,0,1.722H17.861a.861.861,0,1,1,0-1.722Z" transform="translate(12.28 9.802)" fill="#fff"/>
      <path id="Path_4281" data-name="Path 4281" d="M21.306,17a.861.861,0,0,1,0,1.722H17.861a.861.861,0,0,1,0-1.722Z" transform="translate(12.28 11.969)" fill="#fff"/>
      <path id="Path_4282" data-name="Path 4282" d="M21.306,20a.861.861,0,0,1,0,1.722H17.861a.861.861,0,0,1,0-1.722Z" transform="translate(12.28 14.136)" fill="#fff"/>
      <path id="Path_4283" data-name="Path 4283" d="M14.722,33.974a.861.861,0,1,1-1.722,0V9.861a.916.916,0,0,1,.31-.672.905.905,0,0,1,.723-.172l.689.138V33.974Z" transform="translate(9.391 6.19)" fill="#fff"/>
      <path id="Path_4284" data-name="Path 4284" d="M15.528,23v.861a.853.853,0,0,0,.861.861H9.5a.853.853,0,0,0,.861-.861V23Z" transform="translate(6.862 16.303)" fill="#fff"/>
      <path id="Path_4285" data-name="Path 4285" d="M12.306,5a.861.861,0,1,1,0,1.722H8.861A.861.861,0,1,1,8.861,5Z" transform="translate(5.779 3.301)" fill="#fff"/>
      <path id="Path_4286" data-name="Path 4286" d="M13.167,8.861a.853.853,0,0,1-.861.861H8.861A.861.861,0,1,1,8.861,8h3.445A.853.853,0,0,1,13.167,8.861Z" transform="translate(5.779 5.468)" fill="#fff"/>
      <path id="Path_4287" data-name="Path 4287" d="M12.306,11a.861.861,0,1,1,0,1.722H8.861a.861.861,0,1,1,0-1.722Z" transform="translate(5.779 7.635)" fill="#fff"/>
      <path id="Path_4288" data-name="Path 4288" d="M12.306,14a.861.861,0,1,1,0,1.722H8.861a.861.861,0,1,1,0-1.722Z" transform="translate(5.779 9.802)" fill="#fff"/>
      <path id="Path_4289" data-name="Path 4289" d="M8.167,14.861a.853.853,0,0,1-.861.861H3.861a.861.861,0,1,1,0-1.722H7.306A.853.853,0,0,1,8.167,14.861Z" transform="translate(2.167 9.802)" fill="#fff"/>
      <path id="Path_4290" data-name="Path 4290" d="M7.306,5a.861.861,0,0,1,0,1.722H3.861A.861.861,0,0,1,3.861,5Z" transform="translate(2.167 3.301)" fill="#fff"/>
      <path id="Path_4291" data-name="Path 4291" d="M7.306,8a.861.861,0,0,1,0,1.722H3.861A.861.861,0,0,1,3.861,8Z" transform="translate(2.167 5.468)" fill="#fff"/>
      <path id="Path_4292" data-name="Path 4292" d="M7.306,11a.861.861,0,1,1,0,1.722H3.861a.861.861,0,1,1,0-1.722Z" transform="translate(2.167 7.635)" fill="#fff"/>
      <path id="Path_4293" data-name="Path 4293" d="M12.612,19.584a.864.864,0,0,0-.861-.861H6.584a.853.853,0,0,0-.861.861v7.751H4V19.584A2.58,2.58,0,0,1,6.584,17h5.167a2.58,2.58,0,0,1,2.584,2.584v7.751H12.612Z" transform="translate(2.889 11.969)" fill="#fff"/>
      <path id="Path_4294" data-name="Path 4294" d="M5.722,23h8.612v.861a.853.853,0,0,1-.861.861H4.861A.853.853,0,0,1,4,23.861V23Z" transform="translate(2.889 16.303)" fill="#fff"/>
      <path id="Path_4295" data-name="Path 4295" d="M3.014.214,21.943,3.09a2.574,2.574,0,0,1,2.17,2.549v9.886l-.689-.138a.905.905,0,0,0-.723.172.916.916,0,0,0-.31.672V5.639a.871.871,0,0,0-.723-.861L2.739,1.919A.477.477,0,0,0,2.584,1.9a.812.812,0,0,0-.551.207.824.824,0,0,0-.31.654V38.623a.864.864,0,0,0,.861.861H6.889v.861a.853.853,0,0,0,.861.861H2.584A2.58,2.58,0,0,1,0,38.623V2.763A2.536,2.536,0,0,1,.913.8a2.585,2.585,0,0,1,2.1-.586Z" transform="translate(0 -0.181)" fill="#fff"/>
    </g>
  </g>
</svg>
