<svg xmlns="http://www.w3.org/2000/svg" width="80" height="80" viewBox="0 0 80 80">
  <g id="commerciale" transform="translate(-1119 -3194)">
    <circle id="Ellipse_6" data-name="Ellipse 6" cx="40" cy="40" r="40" transform="translate(1119 3194)" fill="#dc582a"/>
    <g id="Group_6237" data-name="Group 6237" transform="translate(1138.145 3213.145)">
      <path id="Path_4300" data-name="Path 4300" d="M7.24,231.262H1.609V220.8A.8.8,0,1,0,0,220.8v21.719a.8.8,0,1,0,1.609,0v-6.435h7.24v6.435a.8.8,0,1,0,1.609,0V234.48A3.221,3.221,0,0,0,7.24,231.262Zm-5.631,1.609H7.24a1.611,1.611,0,0,1,1.609,1.609H1.609Z" transform="translate(0 -202.303)" fill="#fff"/>
      <path id="Path_4301" data-name="Path 4301" d="M389.653,220a.8.8,0,0,0-.8.8v10.458h-5.631A3.221,3.221,0,0,0,380,234.48v8.044a.8.8,0,1,0,1.609,0v-6.435h7.24v6.435a.8.8,0,1,0,1.609,0V220.8A.8.8,0,0,0,389.653,220Zm-8.044,14.48a1.611,1.611,0,0,1,1.609-1.609h5.631v1.609Z" transform="translate(-349.432 -202.303)" fill="#fff"/>
      <path id="Path_4302" data-name="Path 4302" d="M121.719,294.827a3.221,3.221,0,0,0,3.218-3.218v-.8a.8.8,0,0,0-.8-.8H100.8a.8.8,0,0,0-.8.8v.8a3.221,3.221,0,0,0,3.218,3.218h8.446v11.262h-2.413a.8.8,0,1,0,0,1.609h6.435a.8.8,0,1,0,0-1.609h-2.413V294.827Zm-20.111-3.218h21.719a1.611,1.611,0,0,1-1.609,1.609h-18.5A1.611,1.611,0,0,1,101.609,291.609Z" transform="translate(-91.956 -266.672)" fill="#fff"/>
      <path id="Path_4303" data-name="Path 4303" d="M37.808,0H3.218A3.221,3.221,0,0,0,0,3.218V10.9a2.774,2.774,0,0,0,4.746,1.952,2.77,2.77,0,0,0,3.942,0,2.77,2.77,0,0,0,3.942,0,2.77,2.77,0,0,0,3.942,0,2.77,2.77,0,0,0,3.942,0,2.77,2.77,0,0,0,3.942,0,2.77,2.77,0,0,0,3.942,0,2.77,2.77,0,0,0,3.942,0,2.77,2.77,0,0,0,3.942,0A2.774,2.774,0,0,0,41.026,10.9V3.218A3.221,3.221,0,0,0,37.808,0ZM1.609,3.218A1.611,1.611,0,0,1,3.218,1.609h34.59a1.611,1.611,0,0,1,1.609,1.609V4.827H1.609Zm1.166,8.849A1.168,1.168,0,0,1,1.609,10.9V6.435H3.942V10.9A1.168,1.168,0,0,1,2.775,12.066Zm3.942,0A1.168,1.168,0,0,1,5.551,10.9V6.435H7.883V10.9A1.168,1.168,0,0,1,6.717,12.066Zm3.942,0A1.168,1.168,0,0,1,9.492,10.9V6.435h2.333V10.9A1.168,1.168,0,0,1,10.659,12.066Zm3.942,0A1.168,1.168,0,0,1,13.434,10.9V6.435h2.333V10.9A1.168,1.168,0,0,1,14.6,12.066Zm3.942,0A1.168,1.168,0,0,1,17.376,10.9V6.435h2.333V10.9A1.168,1.168,0,0,1,18.542,12.066Zm3.942,0A1.168,1.168,0,0,1,21.317,10.9V6.435H23.65V10.9A1.168,1.168,0,0,1,22.484,12.066Zm3.942,0A1.168,1.168,0,0,1,25.259,10.9V6.435h2.333V10.9A1.168,1.168,0,0,1,26.425,12.066Zm3.942,0A1.168,1.168,0,0,1,29.2,10.9V6.435h2.333V10.9A1.168,1.168,0,0,1,30.367,12.066Zm3.942,0A1.168,1.168,0,0,1,33.142,10.9V6.435h2.333V10.9A1.168,1.168,0,0,1,34.309,12.066ZM39.417,10.9a1.166,1.166,0,0,1-2.333,0V6.435h2.333Z" fill="#fff"/>
    </g>
  </g>
</svg>
