<svg xmlns="http://www.w3.org/2000/svg" width="70.013" height="70" viewBox="0 0 70.013 70">
  <g id="cucine" transform="translate(-1 -1.012)">
    <path id="Path_4296" data-name="Path 4296" d="M71.013,43.91a3.392,3.392,0,0,0-3.388-3.388H63.109a3.38,3.38,0,0,0-1.129,6.568V47.3a1.13,1.13,0,0,1-1.129,1.129H58.592V41.491a4.5,4.5,0,0,0-.457-8.806c1.523-4.112-1.163-11.123-6.9-17.964l1.884-1.884a3.38,3.38,0,0,0,3.846-5.443L52.175,2.6a3.379,3.379,0,0,0-5.442,3.845L44.85,8.332C36.826,1.608,28.562-.93,25.027,2.605a1.128,1.128,0,0,0,0,1.6L53.442,32.617H14.551a4.507,4.507,0,0,0-1.129,8.874v6.936H11.163A1.13,1.13,0,0,1,10.034,47.3V47.09A3.38,3.38,0,0,0,8.9,40.522H4.388A3.38,3.38,0,0,0,3.258,47.09v1.337A6.782,6.782,0,0,0,10.034,55.2h3.388v7.9a7.914,7.914,0,0,0,7.9,7.9h29.36a7.914,7.914,0,0,0,7.9-7.9V55.2h3.388a6.782,6.782,0,0,0,6.775-6.775V47.09A3.383,3.383,0,0,0,71.013,43.91ZM48.982,4.2a1.13,1.13,0,0,1,1.6,0l4.79,4.791a1.129,1.129,0,1,1-1.6,1.6L48.982,5.8a1.13,1.13,0,0,1,0-1.6Zm-.8,3.993,3.195,3.195-1.633,1.632q-.754-.822-1.562-1.632T46.552,9.828Zm-1.6,4.79C52.821,19.22,57.779,28.037,56.017,32L27.573,3.555C31.536,1.795,40.352,6.751,46.587,12.985ZM12.292,37.134a2.261,2.261,0,0,1,2.258-2.258H57.462a2.258,2.258,0,1,1,0,4.517H14.551A2.261,2.261,0,0,1,12.292,37.134Zm-7.9,5.646H8.9a1.129,1.129,0,1,1,0,2.258H4.388a1.129,1.129,0,0,1,0-2.258Zm5.646,10.163a4.522,4.522,0,0,1-4.517-4.517V47.3H7.775a3.392,3.392,0,0,0,3.388,3.388h2.258v2.258ZM50.687,68.753H21.326a5.653,5.653,0,0,1-5.646-5.646V41.651H56.333V63.107A5.653,5.653,0,0,1,50.687,68.753ZM61.979,52.944H58.592V50.685H60.85A3.392,3.392,0,0,0,64.238,47.3H66.5v1.129A4.522,4.522,0,0,1,61.979,52.944Zm5.646-7.9H63.109a1.129,1.129,0,1,1,0-2.258h4.517a1.129,1.129,0,1,1,0,2.258Z" transform="translate(0 0)" fill="#f1be48"/>
    <path id="Path_4298" data-name="Path 4298" d="M17.52,21.855a2.961,2.961,0,0,1,0,4.187l-2.19,2.19,1.6,1.6,2.19-2.19a5.218,5.218,0,0,0,0-7.381l-.993-.993a2.961,2.961,0,0,1,0-4.186l2.19-2.19-1.6-1.6-2.19,2.19a5.218,5.218,0,0,0,0,7.381Z" transform="translate(1.809 1.329)" fill="#f1be48"/>
    <path id="Path_4299" data-name="Path 4299" d="M29.315,12.89l-1.6-1.6-2.19,2.19a5.218,5.218,0,0,0,0,7.381l.993.993a2.961,2.961,0,0,1,0,4.186l-2.19,2.19,1.6,1.6,2.19-2.19a5.218,5.218,0,0,0,0-7.381l-.993-.993a2.961,2.961,0,0,1,0-4.186Z" transform="translate(2.973 1.329)" fill="#f1be48"/>
  </g>
</svg>
