<svg xmlns="http://www.w3.org/2000/svg" width="70.002" height="70" viewBox="0 0 70.002 70">
  <g id="dipendenti" transform="translate(-490.999 -1532)">
    <path id="Path_4314" data-name="Path 4314" d="M57.547,28.072a10.408,10.408,0,0,0,5.4-8.421,3.509,3.509,0,0,0,2.382-3.318V11.667A11.679,11.679,0,0,0,53.667,0H51.334A11.68,11.68,0,0,0,39.667,11.667v4.667a3.509,3.509,0,0,0,2.382,3.318,10.406,10.406,0,0,0,5.4,8.42,18.141,18.141,0,0,0-2.547.391A11.631,11.631,0,0,0,36.167,24.5H33.834a11.634,11.634,0,0,0-3.206.459A15.246,15.246,0,0,1,29.167,17.5V12.833a12.833,12.833,0,1,0-25.667,0V17.5c0,5.759-1.589,8.028-2.527,8.867A3.005,3.005,0,0,0,.715,30.53a7.838,7.838,0,0,0,2.936,1.834C1.578,34.257,0,37.242,0,42v1.167a3.5,3.5,0,0,0,3.5,3.5H25.084a9.732,9.732,0,0,0,4.874,5.906C23.9,53.083,17.5,56.609,17.5,65.333V66.5A3.5,3.5,0,0,0,21,70H49a3.5,3.5,0,0,0,3.5-3.5V65.333c0-8.724-6.4-12.256-12.453-12.761a9.732,9.732,0,0,0,4.87-5.906H66.5a3.5,3.5,0,0,0,3.5-3.5V40.833C70,32.109,63.6,28.583,57.547,28.072ZM42,11.667a9.344,9.344,0,0,1,9.333-9.333h2.333A9.344,9.344,0,0,1,63,11.667v1.374c-.038-.014-.075-.034-.117-.045a4.536,4.536,0,0,0-4.136-3.5,8.386,8.386,0,0,1-5.425-2.154,1.167,1.167,0,0,0-1.65,0A8.38,8.38,0,0,1,46.248,9.5,4.537,4.537,0,0,0,42.112,13c-.04.012-.076.032-.117.045Zm2.333,7A1.167,1.167,0,0,0,43.167,17.5a1.167,1.167,0,0,1,0-2.333A1.167,1.167,0,0,0,44.334,14,2.192,2.192,0,0,1,46.4,11.824a10.994,10.994,0,0,0,6.1-2.108,10.993,10.993,0,0,0,6.1,2.108A2.192,2.192,0,0,1,60.667,14a1.167,1.167,0,0,0,1.167,1.167,1.167,1.167,0,0,1,0,2.333,1.167,1.167,0,0,0-1.167,1.167c0,.334-.137,8.167-8.167,8.167S44.334,19,44.334,18.667Zm10.5,10.291v.209a2.333,2.333,0,0,1-4.667,0v-.212a12.927,12.927,0,0,0,4.667,0Zm-21-2.124h2.333A9.344,9.344,0,0,1,45.5,36.167v1.374c-.039-.014-.075-.034-.117-.046A4.536,4.536,0,0,0,41.247,34a8.378,8.378,0,0,1-5.424-2.154,1.167,1.167,0,0,0-1.65,0A8.375,8.375,0,0,1,28.749,34a4.537,4.537,0,0,0-4.137,3.5c-.04.012-.076.032-.117.046V36.167A9.344,9.344,0,0,1,33.834,26.833Zm-5.383-1.007a11.75,11.75,0,0,0-4.333,3.9A15.673,15.673,0,0,0,21,29.211v-.583h-.044A20.479,20.479,0,0,0,26.491,20.9a3.465,3.465,0,0,0,.525-.175,14.8,14.8,0,0,0,1.435,5.1ZM5.834,12.833a10.5,10.5,0,1,1,21,0v1.374c-.033-.012-.063-.029-.1-.04a8.392,8.392,0,0,0-3.492-4.8,3.967,3.967,0,0,0-4.054-.358,23.479,23.479,0,0,1-8.4,1.611l-.7.041a4.533,4.533,0,0,0-4.14,3.493c-.041.013-.075.037-.117.051Zm.358,3.835A1.119,1.119,0,0,1,7,16.333a1.167,1.167,0,0,0,1.167-1.167,2.189,2.189,0,0,1,2.072-2.172l.678-.04a25.433,25.433,0,0,0,9.267-1.831,1.781,1.781,0,0,1,.75-.169,1.556,1.556,0,0,1,.927.3c.986.726,2.639,2.2,2.639,3.914a1.167,1.167,0,0,0,1.167,1.167,1.167,1.167,0,0,1,0,2.333,1.167,1.167,0,0,0-1.093.756C23.684,21.809,20.455,28,16.334,28s-7.343-6.191-8.24-8.577A1.167,1.167,0,0,0,7,18.667,1.167,1.167,0,0,1,5.834,17.5a1.14,1.14,0,0,1,.358-.832ZM18.667,29.9v.435a2.191,2.191,0,0,1-2.333,2.333A2.191,2.191,0,0,1,14,30.333V29.9a6.473,6.473,0,0,0,4.667,0ZM2.485,29a.68.68,0,0,1,.028-.888c1.23-1.092,2.651-3.231,3.142-7.386a3.462,3.462,0,0,0,.522.174,20.478,20.478,0,0,0,5.535,7.728h-.044v.583a14.952,14.952,0,0,0-5.614,1.493A8.006,8.006,0,0,1,2.485,29ZM3.5,44.333a1.167,1.167,0,0,1-1.167-1.167V42c0-8.377,5.525-10.214,9.467-10.463a4.349,4.349,0,0,0,1.351,2.3A4.765,4.765,0,0,0,16.334,35a4.517,4.517,0,0,0,4.522-3.463,13.809,13.809,0,0,1,2.15.309,11.6,11.6,0,0,0-.839,4.32v4.667a3.509,3.509,0,0,0,2.382,3.318c0,.058.016.117.023.182Zm27.425,10.51,2.426,3.234-1.924,1.373L29.2,55a17.134,17.134,0,0,1,1.728-.156ZM35,56.388l-2.184-2.911a12.717,12.717,0,0,0,4.368,0Zm1.648,4.556-.224.889H33.576l-.224-.89L35,59.767Zm-6.105,6.722H21A1.167,1.167,0,0,1,19.834,66.5V65.333c0-6.238,3.66-8.785,7.012-9.815L29.394,60.6a2.217,2.217,0,0,0,1.472,1.167,1.956,1.956,0,0,0,.3.035l.308,1.224Zm2.38,0,.7-3.5h2.753l.7,3.5Zm17.243-2.333V66.5A1.167,1.167,0,0,1,49,67.667H39.457l-.933-4.636.308-1.22a2.123,2.123,0,0,0,.3-.039A2.217,2.217,0,0,0,40.6,60.6l2.549-5.088C46.507,56.548,50.167,59.1,50.167,65.333ZM40.8,55l-2.229,4.451L36.65,58.078l2.425-3.234A17.134,17.134,0,0,1,40.8,55Zm3.53-13a1.167,1.167,0,0,0-1.167,1.167c0,.334-.137,8.167-8.167,8.167s-8.167-7.836-8.167-8.167A1.167,1.167,0,0,0,25.667,42a1.167,1.167,0,0,1,0-2.333A1.167,1.167,0,0,0,26.834,38.5,2.192,2.192,0,0,1,28.9,36.324,10.982,10.982,0,0,0,35,34.216a10.985,10.985,0,0,0,6.1,2.108A2.192,2.192,0,0,1,43.167,38.5a1.167,1.167,0,0,0,1.167,1.167,1.167,1.167,0,0,1,0,2.333Zm23.333,1.167A1.167,1.167,0,0,1,66.5,44.333H45.428c.007-.059.017-.124.023-.182a3.509,3.509,0,0,0,2.382-3.318V36.167a11.6,11.6,0,0,0-1.447-5.617c.517-.083,1.05-.148,1.58-.182a4.345,4.345,0,0,0,1.352,2.3A4.765,4.765,0,0,0,52.5,33.833a4.517,4.517,0,0,0,4.522-3.464c3.449.215,10.645,1.714,10.645,10.464Z" transform="translate(491.001 1532)" fill="#f1be48"/>
  </g>
</svg>
