<svg xmlns="http://www.w3.org/2000/svg" width="183.403" height="48" viewBox="0 0 183.403 48">
  <g id="LOGO" transform="translate(-0.12 -1.5)">
    <g id="Group_6233" data-name="Group 6233" transform="translate(3.11 43.628)">
      <path id="Path_8" d="M9.9,142.3a2.877,2.877,0,0,1,3.027-2.9,2.833,2.833,0,0,1,2.232.948l-.673.642a1.991,1.991,0,1,0-1.59,3.271h.061a1.914,1.914,0,0,0,1.5-.673l.673.642a2.876,2.876,0,0,1-2.232.948,2.81,2.81,0,0,1-3-2.874" transform="translate(-9.9 -139.363)" fill="#919191"/>
      <path id="Path_9" d="M29.8,142.3a3.029,3.029,0,1,1,3.027,2.9,2.9,2.9,0,0,1-3.027-2.9m5.045,0a1.953,1.953,0,0,0-1.834-1.987h-.122a1.987,1.987,0,0,0,0,3.975h0a1.953,1.953,0,0,0,1.987-1.834.276.276,0,0,1-.031-.153" transform="translate(-23.716 -139.367)" fill="#919191"/>
      <path id="Path_10" d="M54.6,139.8h1.039v4.739h2.935v.887H54.6Z" transform="translate(-40.934 -139.645)" fill="#919191"/>
      <path id="Path_11" d="M71.7,139.8h1.039v4.739h2.935v.887H71.7Z" transform="translate(-52.806 -139.645)" fill="#919191"/>
      <path id="Path_12" d="M92.95,144.539v.887H88.7V139.8h4.1v.887H89.739v1.468h2.69v.856h-2.69v1.559Z" transform="translate(-64.608 -139.645)" fill="#919191"/>
      <path id="Path_13" d="M106.2,142.3a2.877,2.877,0,0,1,3.027-2.9,2.833,2.833,0,0,1,2.232.948l-.673.642a1.991,1.991,0,1,0-1.59,3.271h.061a1.914,1.914,0,0,0,1.5-.673l.673.642a2.876,2.876,0,0,1-2.232.948,2.844,2.844,0,0,1-3-2.874" transform="translate(-76.758 -139.363)" fill="#919191"/>
      <path id="Path_14" d="M127.265,140.687H125.4V139.8h4.769v.887H128.3v4.739h-1.039Z" transform="translate(-90.088 -139.645)" fill="#919191"/>
      <rect id="Rectangle_7" width="1.039" height="5.625" transform="translate(41.274 0.155)" fill="#919191"/>
      <path id="Path_15" d="M157.8,139.8l-2.446,5.625h-1.009L151.9,139.8h1.131l1.865,4.311,1.865-4.311Z" transform="translate(-108.486 -139.645)" fill="#919191"/>
      <path id="Path_16" d="M178.719,144.539v.887H174.5V139.8h4.1v.887H175.57v1.468h2.69v.856h-2.69v1.559Z" transform="translate(-124.176 -139.645)" fill="#919191"/>
      <path id="Path_17" d="M200.7,142.3a2.877,2.877,0,0,1,3.027-2.9,2.833,2.833,0,0,1,2.232.948l-.673.642a1.991,1.991,0,1,0-1.59,3.271h.061a1.914,1.914,0,0,0,1.5-.673l.673.642a2.876,2.876,0,0,1-2.232.948,2.827,2.827,0,0,1-3-2.874" transform="translate(-142.366 -139.363)" fill="#919191"/>
      <path id="Path_18" d="M223.933,144.111H221.12l-.55,1.315H219.5l2.538-5.625h1.009l2.538,5.625h-1.07Zm-.367-.825-1.039-2.446-1.04,2.446Z" transform="translate(-155.419 -139.645)" fill="#919191"/>
      <path id="Path_19" d="M241.565,140.687H239.7V139.8h4.769v.887H242.6v4.739h-1.039Z" transform="translate(-169.443 -139.645)" fill="#919191"/>
      <path id="Path_20" d="M263.419,144.539v.887H259.2V139.8h4.127v.887H260.27v1.468h2.69v.856h-2.69v1.559Z" transform="translate(-182.981 -139.645)" fill="#919191"/>
      <path id="Path_21" d="M281.769,145.425l-1.131-1.651h-1.5v1.651H278.1V139.8h2.324c1.467,0,2.385.764,2.385,2.018a1.781,1.781,0,0,1-1.223,1.773l1.315,1.834Zm-1.376-4.739H279.17v2.232h1.223c.917,0,1.406-.428,1.406-1.1s-.489-1.131-1.406-1.131" transform="translate(-196.103 -139.645)" fill="#919191"/>
      <rect id="Rectangle_8" width="1.039" height="5.625" transform="translate(88.295 0.155)" fill="#919191"/>
      <path id="Path_22" d="M313.384,139.8v5.625h-.856L309.44,141.6v3.822H308.4V139.8h.856l3.088,3.822V139.8Z" transform="translate(-217.139 -139.645)" fill="#919191"/>
      <path id="Path_23" d="M333.85,142.169h.978V144.4a3.388,3.388,0,0,1-2.2.7,2.909,2.909,0,1,1,2.293-4.892l-.673.642a2.03,2.03,0,1,0-1.712,3.3h.122a2.3,2.3,0,0,0,1.131-.275Z" transform="translate(-231.857 -139.293)" fill="#919191"/>
      <path id="Path_24" d="M364.417,145.209l-.7-.673a2.757,2.757,0,0,1-1.865.673c-1.162,0-2.048-.611-2.048-1.5,0-.7.367-1.162,1.315-1.712a1.727,1.727,0,0,1-.642-1.253c0-.795.642-1.345,1.62-1.345.917,0,1.5.489,1.5,1.254,0,.581-.336.978-1.131,1.467l1.223,1.131a3.133,3.133,0,0,0,.306-.948l.826.245a3.351,3.351,0,0,1-.52,1.284l.7.673Zm-1.284-1.253-1.5-1.437c-.642.336-.887.673-.887,1.039,0,.489.459.795,1.131.795a1.6,1.6,0,0,0,1.253-.4m-1.773-3.21c0,.245.092.459.52.825.642-.336.856-.581.856-.887s-.214-.55-.642-.55c-.459.031-.734.275-.734.611" transform="translate(-252.824 -139.367)" fill="#919191"/>
      <path id="Path_25" d="M393.269,145.425l-1.131-1.651h-1.5v1.651H389.6V139.8h2.324c1.467,0,2.385.764,2.385,2.018a1.781,1.781,0,0,1-1.223,1.773l1.315,1.834Zm-1.406-4.739H390.64v2.232h1.223c.917,0,1.406-.428,1.406-1.1s-.52-1.131-1.406-1.131" transform="translate(-273.513 -139.645)" fill="#919191"/>
      <path id="Path_26" d="M414.219,144.539v.887H410V139.8h4.127v.887H411.07v1.468h2.69v.856h-2.69v1.559Z" transform="translate(-287.676 -139.645)" fill="#919191"/>
      <path id="Path_27" d="M427.5,144.536l.336-.825a2.886,2.886,0,0,0,1.834.611c.887,0,1.254-.306,1.254-.734,0-1.223-3.332-.428-3.332-2.507,0-.917.734-1.682,2.262-1.682a3.307,3.307,0,0,1,1.865.52l-.306.826a3.183,3.183,0,0,0-1.559-.459c-.856,0-1.223.336-1.223.764,0,1.223,3.332.428,3.332,2.476,0,.887-.734,1.682-2.262,1.682a3.542,3.542,0,0,1-2.2-.673" transform="translate(-299.826 -139.367)" fill="#919191"/>
      <path id="Path_28" d="M446.065,140.687H444.2V139.8h4.769v.887h-1.834v4.739H446.1v-4.739Z" transform="translate(-311.421 -139.645)" fill="#919191"/>
      <path id="Path_29" d="M464.633,144.111H461.82l-.55,1.315H460.2l2.538-5.625h1.009l2.538,5.625h-1.1Zm-.336-.825-1.04-2.446-1.039,2.446Z" transform="translate(-322.529 -139.645)" fill="#919191"/>
      <path id="Path_30" d="M483.2,142.98V139.8h1.04v3.149c0,1.131.52,1.651,1.437,1.651s1.437-.52,1.437-1.651V139.8h1.009v3.18a2.264,2.264,0,0,1-2.446,2.538,2.314,2.314,0,0,1-2.476-2.538" transform="translate(-338.497 -139.645)" fill="#919191"/>
      <path id="Path_31" d="M509.169,145.425l-1.131-1.651h-1.5v1.651H505.5V139.8h2.324c1.468,0,2.385.764,2.385,2.018a1.781,1.781,0,0,1-1.223,1.773l1.315,1.834Zm-1.437-4.739h-1.223v2.232h1.223c.917,0,1.406-.428,1.406-1.1s-.489-1.131-1.406-1.131" transform="translate(-353.979 -139.645)" fill="#919191"/>
      <path id="Path_32" d="M527.833,144.111h-2.813l-.55,1.315H523.4l2.538-5.625h1.009l2.538,5.625h-1.07Zm-.367-.825-1.039-2.446-1.04,2.446Z" transform="translate(-366.407 -139.645)" fill="#919191"/>
      <path id="Path_33" d="M551.883,139.8v5.625h-.856L547.94,141.6v3.822H546.9V139.8h.856l3.088,3.822V139.8Z" transform="translate(-382.722 -139.645)" fill="#919191"/>
      <path id="Path_34" d="M568.965,140.687H567.1V139.8h4.769v.887H570v4.739h-1.039Z" transform="translate(-396.746 -139.645)" fill="#919191"/>
      <path id="Path_35" d="M584.9,144.536l.336-.825a2.886,2.886,0,0,0,1.834.611c.887,0,1.253-.306,1.253-.734,0-1.223-3.332-.428-3.332-2.507,0-.917.734-1.682,2.262-1.682a3.307,3.307,0,0,1,1.865.52l-.306.826a3.183,3.183,0,0,0-1.559-.459c-.856,0-1.223.336-1.223.764,0,1.223,3.332.428,3.332,2.476,0,.887-.734,1.682-2.262,1.682a3.6,3.6,0,0,1-2.2-.673" transform="translate(-409.104 -139.367)" fill="#919191"/>
    </g>
    <path id="Path_36" d="M161.166,43.605H147.5l-2.6,6.329h-7L151.077,20.4h6.757L170.95,49.934H163.8Zm-2.14-5.167-4.678-11.282-4.678,11.282Z" transform="translate(-95.656 -13.122)" fill="#874b52"/>
    <path id="Path_37" d="M281.833,50l-5.687-8.224h-6.3V50H263V20.5h12.78c7.888,0,12.81,4.1,12.81,10.7a9.611,9.611,0,0,1-6.053,9.325L289.14,50Zm-6.42-23.939h-5.564v10.3h5.564c4.158,0,6.3-1.926,6.3-5.136,0-3.271-2.079-5.167-6.3-5.167" transform="translate(-182.509 -13.191)" fill="#874b52"/>
    <path id="Path_38" d="M392.574,50l-.031-17.7-8.683,14.583h-3.088L372.12,32.7V50H365.7V20.5h5.656l11.037,18.313L393.277,20.5H398.9l.092,29.534H392.6V50Z" transform="translate(-253.81 -13.191)" fill="#874b52"/>
    <path id="Path_39" d="M514.927,43.605H501.2l-2.6,6.329h-7L504.777,20.4h6.757l13.208,29.534h-7.154Zm-2.14-5.167L508.11,27.157l-4.678,11.282Z" transform="translate(-341.219 -13.122)" fill="#874b52"/>
    <path id="Path_4272" data-name="Path 4272" d="M25.943,92.354a27.631,27.631,0,0,1-7.276-.948c-.061,0-.092-.031-.122-.031h-.031c-.031,0-.061-.031-.092-.031s-.092-.031-.122-.031h0c-.031,0-.092-.031-.122-.031A27.182,27.182,0,0,1,12.8,89.3a26,26,0,0,1-3-1.682c.245-1.406.7-3.944,1.039-5.259a4.5,4.5,0,0,1,.245-.856,37.988,37.988,0,0,0,4.4,1.987,35.648,35.648,0,0,0,4.678,1.376,38.554,38.554,0,0,0,4.678,1.07,36.753,36.753,0,0,0,4.831.4,5.094,5.094,0,0,1-.245.917c-.336,1.315-1.131,3.76-1.651,5.106C27.38,92.323,26.738,92.354,25.943,92.354Z" transform="translate(-6.72 -55.541)" fill="#874b52"/>
    <path id="Path_4273" data-name="Path 4273" d="M33.137,41.7a29.615,29.615,0,0,1-6.359-.734A31.638,31.638,0,0,1,17.3,37.087a3,3,0,0,1,.245-.55,29.624,29.624,0,0,1,7.429-10.395,22.052,22.052,0,0,1,2.69-2.018,25,25,0,0,1,3.21-1.743,16.8,16.8,0,0,1,3.546-1.223,15.446,15.446,0,0,1,3.761-.459,5.412,5.412,0,0,1,.7.031,11.55,11.55,0,0,1,2.874.489,4.354,4.354,0,0,1,.489.153,9.4,9.4,0,0,1,6.573,7.4c.673,4.433-2.415,8.5-5.717,10.548A20.446,20.446,0,0,1,33.137,41.7Z" transform="translate(-11.927 -13.33)" fill="#dc582a"/>
    <path id="Path_4274" data-name="Path 4274" d="M4.67,19.966h0a15.592,15.592,0,0,1-1.9-2.354A22.541,22.541,0,0,1,.756,13.821,8.957,8.957,0,0,1,1.8,5.291a9.872,9.872,0,0,1,3.18-2.782A8.288,8.288,0,0,1,8.98,1.5h.459a8.58,8.58,0,0,1,4.708,1.773,9.931,9.931,0,0,1,3.18,4.219,30.752,30.752,0,0,0-3.21,1.926A33.947,33.947,0,0,0,4.67,19.966Z" transform="translate(0 0)" fill="#f1be48"/>
  </g>
</svg>
