<svg id="LOGO" xmlns="http://www.w3.org/2000/svg" width="197.366" height="51.654" viewBox="0 0 197.366 51.654">
  <g id="Group_6233" data-name="Group 6233" transform="translate(3.218 45.335)">
    <path id="Path_8" d="M9.9,142.521a3.1,3.1,0,0,1,3.257-3.126,3.049,3.049,0,0,1,2.4,1.02l-.724.691a2.143,2.143,0,1,0-1.711,3.52h.066A2.06,2.06,0,0,0,14.8,143.9l.724.691a3.1,3.1,0,0,1-2.4,1.02A3.024,3.024,0,0,1,9.9,142.521" transform="translate(-9.9 -139.361)" fill="#fff"/>
    <path id="Path_9" d="M29.8,142.526a3.26,3.26,0,1,1,3.257,3.126,3.116,3.116,0,0,1-3.257-3.126m5.429,0a2.1,2.1,0,0,0-1.974-2.139h-.132a2.139,2.139,0,1,0,0,4.277h0a2.1,2.1,0,0,0,2.139-1.974.3.3,0,0,1-.033-.165" transform="translate(-23.253 -139.365)" fill="#fff"/>
    <path id="Path_10" d="M54.6,139.8h1.119v5.1h3.158v.954H54.6Z" transform="translate(-39.893 -139.633)" fill="#fff"/>
    <path id="Path_11" d="M71.7,139.8h1.119v5.1h3.158v.954H71.7Z" transform="translate(-51.367 -139.633)" fill="#fff"/>
    <path id="Path_12" d="M93.273,144.9v.954H88.7V139.8h4.409v.954h-3.29v1.579h2.9v.921h-2.9v1.678Z" transform="translate(-62.774 -139.633)" fill="#fff"/>
    <path id="Path_13" d="M106.2,142.521a3.1,3.1,0,0,1,3.257-3.126,3.049,3.049,0,0,1,2.4,1.02l-.724.691a2.143,2.143,0,1,0-1.711,3.52h.066a2.06,2.06,0,0,0,1.612-.724l.724.691a3.1,3.1,0,0,1-2.4,1.02,3.061,3.061,0,0,1-3.224-3.093" transform="translate(-74.516 -139.361)" fill="#fff"/>
    <path id="Path_14" d="M127.407,140.754H125.4V139.8h5.133v.954h-2.007v5.1h-1.119Z" transform="translate(-87.399 -139.633)" fill="#fff"/>
    <rect id="Rectangle_7" width="1.119" height="6.054" transform="translate(44.416 0.167)" fill="#fff"/>
    <path id="Path_15" d="M158.25,139.8l-2.632,6.054h-1.086L151.9,139.8h1.217l2.007,4.639,2.007-4.639Z" transform="translate(-105.181 -139.633)" fill="#fff"/>
    <path id="Path_16" d="M179.04,144.9v.954H174.5V139.8h4.409v.954h-3.257v1.579h2.9v.921h-2.9v1.678Z" transform="translate(-120.345 -139.633)" fill="#fff"/>
    <path id="Path_17" d="M200.7,142.521a3.1,3.1,0,0,1,3.257-3.126,3.049,3.049,0,0,1,2.4,1.02l-.724.691a2.143,2.143,0,1,0-1.711,3.52h.066a2.06,2.06,0,0,0,1.612-.724l.724.691a3.1,3.1,0,0,1-2.4,1.02,3.042,3.042,0,0,1-3.224-3.093" transform="translate(-137.925 -139.361)" fill="#fff"/>
    <path id="Path_18" d="M224.271,144.439h-3.027l-.592,1.415H219.5l2.731-6.054h1.086l2.731,6.054H224.9Zm-.395-.888-1.119-2.632-1.119,2.632Z" transform="translate(-150.54 -139.633)" fill="#fff"/>
    <path id="Path_19" d="M241.707,140.754H239.7V139.8h5.133v.954h-2.007v5.1h-1.119Z" transform="translate(-164.094 -139.633)" fill="#fff"/>
    <path id="Path_20" d="M263.74,144.9v.954H259.2V139.8h4.442v.954h-3.29v1.579h2.9v.921h-2.9v1.678Z" transform="translate(-177.178 -139.633)" fill="#fff"/>
    <path id="Path_21" d="M282.048,145.854l-1.217-1.777h-1.612v1.777H278.1V139.8h2.5c1.579,0,2.566.823,2.566,2.171a1.917,1.917,0,0,1-1.316,1.908l1.415,1.974Zm-1.481-5.1h-1.316v2.4h1.316c.987,0,1.513-.461,1.513-1.184s-.526-1.217-1.513-1.217" transform="translate(-189.86 -139.633)" fill="#fff"/>
    <rect id="Rectangle_8" width="1.119" height="6.054" transform="translate(95.018 0.167)" fill="#fff"/>
    <path id="Path_22" d="M313.763,139.8v6.054h-.921l-3.323-4.113v4.113H308.4V139.8h.921l3.323,4.113V139.8Z" transform="translate(-210.191 -139.633)" fill="#fff"/>
    <path id="Path_23" d="M334.173,142.388h1.053v2.4a3.646,3.646,0,0,1-2.369.757,3.13,3.13,0,1,1,2.468-5.264l-.724.691a2.184,2.184,0,1,0-1.842,3.553h.132a2.47,2.47,0,0,0,1.217-.3Z" transform="translate(-224.416 -139.293)" fill="#fff"/>
    <path id="Path_24" d="M364.768,145.651l-.757-.724a2.967,2.967,0,0,1-2.007.724c-1.25,0-2.2-.658-2.2-1.612,0-.757.395-1.25,1.415-1.842a1.858,1.858,0,0,1-.691-1.349c0-.855.691-1.448,1.744-1.448.987,0,1.612.526,1.612,1.349,0,.625-.362,1.053-1.217,1.579l1.316,1.217a3.372,3.372,0,0,0,.329-1.02l.888.263a3.605,3.605,0,0,1-.559,1.382l.757.724Zm-1.382-1.349-1.612-1.546c-.691.362-.954.724-.954,1.119,0,.526.493.855,1.217.855a1.719,1.719,0,0,0,1.349-.428m-1.908-3.455c0,.263.1.494.559.888.691-.362.921-.625.921-.954s-.23-.592-.691-.592c-.493.033-.79.3-.79.658" transform="translate(-244.68 -139.365)" fill="#fff"/>
    <path id="Path_25" d="M393.548,145.854l-1.217-1.777h-1.612v1.777H389.6V139.8h2.5c1.579,0,2.566.823,2.566,2.171a1.917,1.917,0,0,1-1.316,1.908l1.415,1.974Zm-1.513-5.1h-1.316v2.4h1.316c.987,0,1.513-.461,1.513-1.184s-.559-1.217-1.513-1.217" transform="translate(-264.675 -139.633)" fill="#fff"/>
    <path id="Path_26" d="M414.54,144.9v.954H410V139.8h4.442v.954h-3.29v1.579h2.9v.921h-2.9v1.678Z" transform="translate(-278.363 -139.633)" fill="#fff"/>
    <path id="Path_27" d="M427.5,144.927l.362-.888a3.105,3.105,0,0,0,1.974.658c.954,0,1.349-.329,1.349-.79,0-1.316-3.586-.461-3.586-2.7,0-.987.79-1.81,2.435-1.81a3.559,3.559,0,0,1,2.007.559l-.329.888a3.426,3.426,0,0,0-1.678-.493c-.921,0-1.316.362-1.316.822,0,1.316,3.586.461,3.586,2.665,0,.954-.79,1.81-2.435,1.81a3.812,3.812,0,0,1-2.369-.724" transform="translate(-290.106 -139.365)" fill="#fff"/>
    <path id="Path_28" d="M446.207,140.754H444.2V139.8h5.133v.954h-1.974v5.1H446.24v-5.1Z" transform="translate(-301.311 -139.633)" fill="#fff"/>
    <path id="Path_29" d="M464.971,144.439h-3.027l-.592,1.415H460.2l2.731-6.054h1.086l2.731,6.054h-1.184Zm-.362-.888-1.119-2.632-1.119,2.632Z" transform="translate(-312.047 -139.633)" fill="#fff"/>
    <path id="Path_30" d="M483.2,143.222V139.8h1.119v3.389c0,1.217.559,1.777,1.546,1.777s1.546-.559,1.546-1.777V139.8H488.5v3.422a2.436,2.436,0,0,1-2.632,2.731,2.49,2.49,0,0,1-2.665-2.731" transform="translate(-327.48 -139.633)" fill="#fff"/>
    <path id="Path_31" d="M509.448,145.854l-1.217-1.777h-1.612v1.777H505.5V139.8H508c1.579,0,2.566.823,2.566,2.171a1.917,1.917,0,0,1-1.316,1.908l1.415,1.974Zm-1.546-5.1h-1.316v2.4H507.9c.987,0,1.513-.461,1.513-1.184s-.526-1.217-1.513-1.217" transform="translate(-342.443 -139.633)" fill="#fff"/>
    <path id="Path_32" d="M528.171,144.439h-3.027l-.592,1.415H523.4l2.731-6.054h1.086l2.731,6.054H528.8Zm-.395-.888-1.119-2.632-1.119,2.632Z" transform="translate(-354.454 -139.633)" fill="#fff"/>
    <path id="Path_33" d="M552.263,139.8v6.054h-.921l-3.323-4.113v4.113H546.9V139.8h.921l3.323,4.113V139.8Z" transform="translate(-370.222 -139.633)" fill="#fff"/>
    <path id="Path_34" d="M569.107,140.754H567.1V139.8h5.132v.954h-2.007v5.1h-1.119Z" transform="translate(-383.776 -139.633)" fill="#fff"/>
    <path id="Path_35" d="M584.9,144.927l.362-.888a3.106,3.106,0,0,0,1.974.658c.954,0,1.349-.329,1.349-.79,0-1.316-3.586-.461-3.586-2.7,0-.987.79-1.81,2.435-1.81a3.559,3.559,0,0,1,2.007.559l-.329.888a3.425,3.425,0,0,0-1.678-.493c-.921,0-1.316.362-1.316.822,0,1.316,3.586.461,3.586,2.665,0,.954-.79,1.81-2.435,1.81a3.875,3.875,0,0,1-2.369-.724" transform="translate(-395.72 -139.365)" fill="#fff"/>
  </g>
  <path id="Path_36" d="M162.938,45.372H148.231l-2.8,6.81H137.9L152.08,20.4h7.271l14.115,31.782h-7.7Zm-2.3-5.56L155.6,27.671l-5.034,12.14Z" transform="translate(-92.569 -14.182)" fill="#fff"/>
  <path id="Path_37" d="M283.267,52.249l-6.12-8.85H270.37v8.85H263V20.5h13.753c8.488,0,13.785,4.409,13.785,11.515a10.343,10.343,0,0,1-6.514,10.035l7.107,10.2Zm-6.909-25.761H270.37V37.576h5.988c4.474,0,6.778-2.073,6.778-5.527,0-3.52-2.237-5.56-6.778-5.56" transform="translate(-176.51 -14.249)" fill="#fff"/>
  <path id="Path_38" d="M394.62,52.249l-.033-19.05-9.344,15.694H381.92l-9.311-15.266V52.249H365.7V20.5h6.087l11.877,19.708L395.377,20.5h6.054l.1,31.782h-6.876v-.033Z" transform="translate(-245.421 -14.249)" fill="#fff"/>
  <path id="Path_39" d="M516.7,45.372H501.931l-2.8,6.81H491.6L505.78,20.4h7.271l14.213,31.782h-7.7Zm-2.3-5.56-5.034-12.14-5.034,12.14Z" transform="translate(-329.899 -14.182)" fill="#fff"/>
  <path id="Path_4272" data-name="Path 4272" d="M27.172,93.18a29.734,29.734,0,0,1-7.83-1.02c-.066,0-.1-.033-.132-.033h-.033c-.033,0-.066-.033-.1-.033s-.1-.033-.132-.033h0c-.033,0-.1-.033-.132-.033a29.251,29.251,0,0,1-5.791-2.139A27.981,27.981,0,0,1,9.8,88.08c.263-1.513.757-4.244,1.119-5.659a4.846,4.846,0,0,1,.263-.921,40.881,40.881,0,0,0,4.738,2.139,38.363,38.363,0,0,0,5.034,1.481,41.489,41.489,0,0,0,5.034,1.152,39.553,39.553,0,0,0,5.2.428,5.482,5.482,0,0,1-.263.987c-.362,1.415-1.217,4.047-1.777,5.494C28.718,93.147,28.027,93.18,27.172,93.18Z" transform="translate(-6.615 -55.179)" fill="#fff"/>
  <path id="Path_4273" data-name="Path 4273" d="M34.343,43.3a31.87,31.87,0,0,1-6.843-.79,34.047,34.047,0,0,1-10.2-4.178,3.231,3.231,0,0,1,.263-.592,31.879,31.879,0,0,1,7.995-11.186,23.73,23.73,0,0,1,2.9-2.171,26.908,26.908,0,0,1,3.455-1.875,18.081,18.081,0,0,1,3.817-1.316,16.622,16.622,0,0,1,4.047-.494,5.825,5.825,0,0,1,.757.033,12.429,12.429,0,0,1,3.093.526,4.685,4.685,0,0,1,.526.165,10.117,10.117,0,0,1,7.074,7.962c.724,4.771-2.6,9.146-6.152,11.351A22,22,0,0,1,34.343,43.3Z" transform="translate(-11.648 -14.383)" fill="#fff"/>
  <path id="Path_4274" data-name="Path 4274" d="M5.016,21.372h0a16.779,16.779,0,0,1-2.04-2.533A24.257,24.257,0,0,1,.8,14.759,9.638,9.638,0,0,1,1.923,5.58,10.624,10.624,0,0,1,5.345,2.586,8.919,8.919,0,0,1,9.655,1.5h.494a9.233,9.233,0,0,1,5.067,1.908,10.687,10.687,0,0,1,3.422,4.54,33.093,33.093,0,0,0-3.455,2.073A36.532,36.532,0,0,0,5.016,21.372Z" transform="translate(-0.12 -1.5)" fill="#fff"/>
</svg>
