<svg xmlns="http://www.w3.org/2000/svg" width="70.959" height="71.075" viewBox="0 0 70.959 71.075">
  <g id="pasti" transform="translate(-0.487 -0.425)">
    <path id="Path_4355" data-name="Path 4355" d="M46.339,23C33.487,23,23.03,33.211,23.03,45.762S33.486,68.524,46.339,68.524,69.648,58.313,69.648,45.762,59.192,23,46.339,23Zm0,44.414c-12.24,0-22.2-9.713-22.2-21.652S34.1,24.11,46.339,24.11s22.2,9.713,22.2,21.652S58.579,67.414,46.339,67.414Z" transform="translate(-9.805 -9.786)" fill="#f1be53" stroke="#f1be53" stroke-width="1"/>
    <path id="Path_4358" data-name="Path 4358" d="M69.836,38.238V2.714a1.589,1.589,0,0,0-1.023-1.587,2.771,2.771,0,0,0-2.726.667c-3.218,3.684-4.644,10.447-5.367,16.5a29.9,29.9,0,0,0-44.347-4.457l-.421-11.2a1.661,1.661,0,0,0-3.322.014l-.552,13.309a.642.642,0,0,1-.553.594.617.617,0,0,1-.552-.578L10.419,2.635A1.718,1.718,0,0,0,8.758,1,1.719,1.719,0,0,0,7.1,2.642L6.544,15.959a.619.619,0,0,1-.552.586.617.617,0,0,1-.552-.578L4.887,2.635A1.718,1.718,0,0,0,3.226,1,1.734,1.734,0,0,0,1.564,2.645L.991,18.2c-.1,4.372,1.613,7.325,4.833,8.316a1.073,1.073,0,0,1,.72,1.106L5.989,38.168s0,0,0,0,0,0,0,0L4.878,67.065a3.724,3.724,0,0,0,3.886,3.886,3.724,3.724,0,0,0,3.886-3.886c0-.007,0-.014,0-.021l-.528-13.724a29.945,29.945,0,0,0,51.779-5.1l-.726,18.876c0,.007,0,.014,0,.021a3.886,3.886,0,1,0,7.772-.021ZM66.923,2.523a1.717,1.717,0,0,1,1.5-.358c.15.057.3.165.3.548V37.69H65.394V32.138c0-2.138-2.51-2.191-3.716-2.217l-.157,0a.538.538,0,0,1-.381-.184,1.142,1.142,0,0,1-.189-.874c.063-.661.123-1.553.192-2.586C61.544,20.253,62.378,7.725,66.923,2.523ZM6.151,25.452c-2.7-.832-4.14-3.4-4.049-7.222L2.674,2.7a.639.639,0,0,1,.552-.592.617.617,0,0,1,.552.578L4.331,16.02a1.718,1.718,0,0,0,1.661,1.635,1.719,1.719,0,0,0,1.661-1.642L8.206,2.7a.618.618,0,0,1,.552-.586.617.617,0,0,1,.552.578l.554,13.332a1.718,1.718,0,0,0,1.661,1.634,1.736,1.736,0,0,0,1.661-1.642L13.738,2.7a.641.641,0,0,1,.552-.594.634.634,0,0,1,.552.576l.584,15.534c.074,4.153-1.242,6.516-4.023,7.224a2.085,2.085,0,0,0-1.527,2.233l.524,9.964H7.128l.525-9.97a2.2,2.2,0,0,0-1.5-2.219ZM8.764,69.841a2.639,2.639,0,0,1-2.776-2.755l1.09-28.335H10.45l1.089,28.324A2.643,2.643,0,0,1,8.764,69.841Zm27.788-5A28.666,28.666,0,0,1,12.039,51.183l-.5-13.008s0,0,0,0,0,0,0,0l-.555-10.542a1.025,1.025,0,0,1,.693-1.1c3.308-.843,4.943-3.642,4.859-8.331l-.108-2.883a28.8,28.8,0,0,1,44.108,4.648c-.238,2.327-.383,4.489-.5,6.246-.068,1.024-.127,1.909-.189,2.554a2.167,2.167,0,0,0,.464,1.717,1.644,1.644,0,0,0,1.185.557l.159,0c1.666.036,2.63.228,2.63,1.107v6.1l-.25,6.512a28.732,28.732,0,0,1-27.482,20.1ZM67.06,69.89a2.644,2.644,0,0,1-2.776-2.765L65.373,38.8h3.373l1.089,28.314A2.644,2.644,0,0,1,67.06,69.89Z" fill="#f1be53" stroke="#f1be53" stroke-width="1"/>
  </g>
</svg>
