<svg id="ristoranti" xmlns="http://www.w3.org/2000/svg" width="70" height="70" viewBox="0 0 70 70">
  <path id="Path_4300" data-name="Path 4300" d="M12.353,239.216H2.745V221.373a1.373,1.373,0,1,0-2.745,0v37.059a1.373,1.373,0,1,0,2.745,0v-10.98H15.1v10.98a1.373,1.373,0,1,0,2.745,0V244.706A5.5,5.5,0,0,0,12.353,239.216Zm-9.608,2.745h9.608a2.748,2.748,0,0,1,2.745,2.745H2.745Z" transform="translate(0 -189.804)" fill="#f1be48"/>
  <path id="Path_4301" data-name="Path 4301" d="M396.471,220a1.373,1.373,0,0,0-1.373,1.373v17.843H385.49a5.5,5.5,0,0,0-5.49,5.49v13.725a1.373,1.373,0,0,0,2.745,0v-10.98H395.1v10.98a1.373,1.373,0,1,0,2.745,0V221.373A1.373,1.373,0,0,0,396.471,220Zm-13.725,24.706a2.748,2.748,0,0,1,2.745-2.745H395.1v2.745Z" transform="translate(-327.843 -189.804)" fill="#f1be48"/>
  <path id="Path_4302" data-name="Path 4302" d="M137.059,298.235a5.5,5.5,0,0,0,5.49-5.49v-1.373A1.373,1.373,0,0,0,141.176,290h-39.8A1.373,1.373,0,0,0,100,291.372v1.373a5.5,5.5,0,0,0,5.49,5.49H119.9v19.216h-4.118a1.373,1.373,0,1,0,0,2.745h10.98a1.373,1.373,0,1,0,0-2.745h-4.118V298.235Zm-34.314-5.49H139.8a2.748,2.748,0,0,1-2.745,2.745H105.49A2.748,2.748,0,0,1,102.745,292.745Z" transform="translate(-86.275 -250.196)" fill="#f1be48"/>
  <path id="Path_4303" data-name="Path 4303" d="M64.51,0H5.49A5.5,5.5,0,0,0,0,5.49V18.6a4.733,4.733,0,0,0,8.1,3.33,4.726,4.726,0,0,0,6.725,0,4.726,4.726,0,0,0,6.725,0,4.726,4.726,0,0,0,6.725,0,4.726,4.726,0,0,0,6.725,0,4.726,4.726,0,0,0,6.725,0,4.726,4.726,0,0,0,6.725,0,4.726,4.726,0,0,0,6.725,0,4.726,4.726,0,0,0,6.725,0A4.733,4.733,0,0,0,70,18.6V5.49A5.5,5.5,0,0,0,64.51,0ZM2.745,5.49A2.748,2.748,0,0,1,5.49,2.745H64.51A2.748,2.748,0,0,1,67.255,5.49V8.235H2.745Zm1.99,15.1a1.993,1.993,0,0,1-1.99-1.99V10.98h3.98V18.6A1.993,1.993,0,0,1,4.735,20.588Zm6.725,0a1.993,1.993,0,0,1-1.99-1.99V10.98h3.98V18.6A1.993,1.993,0,0,1,11.461,20.588Zm6.725,0A1.993,1.993,0,0,1,16.2,18.6V10.98h3.98V18.6A1.993,1.993,0,0,1,18.186,20.588Zm6.725,0a1.993,1.993,0,0,1-1.99-1.99V10.98H26.9V18.6A1.993,1.993,0,0,1,24.912,20.588Zm6.725,0a1.993,1.993,0,0,1-1.99-1.99V10.98h3.98V18.6A1.993,1.993,0,0,1,31.637,20.588Zm6.725,0a1.993,1.993,0,0,1-1.99-1.99V10.98h3.98V18.6A1.993,1.993,0,0,1,38.363,20.588Zm6.725,0A1.993,1.993,0,0,1,43.1,18.6V10.98h3.98V18.6A1.993,1.993,0,0,1,45.088,20.588Zm6.725,0a1.993,1.993,0,0,1-1.99-1.99V10.98H53.8V18.6A1.993,1.993,0,0,1,51.814,20.588Zm6.725,0a1.993,1.993,0,0,1-1.99-1.99V10.98h3.98V18.6A1.993,1.993,0,0,1,58.539,20.588Zm8.716-1.99a1.99,1.99,0,1,1-3.98,0V10.98h3.98Z" fill="#f1be48"/>
</svg>
