<svg xmlns="http://www.w3.org/2000/svg" width="80" height="80" viewBox="0 0 80 80">
  <g id="scolastica" transform="translate(-460 -3194)">
    <circle id="Ellipse_5" data-name="Ellipse 5" cx="40" cy="40" r="40" transform="translate(460 3194)" fill="#dc582a"/>
    <g id="Page-1" transform="translate(479.145 3213.145)">
      <g id="_015---Apple-Book" data-name="015---Apple-Book" transform="translate(0 0)">
        <path id="Shape" d="M39.221,30.085h.752a2.051,2.051,0,0,0,0-4.1H27.666a9.253,9.253,0,0,0,1.573-1.316c2.927-3.077,4.061-7.935,3.886-11.387a7.365,7.365,0,0,0-3.238-5.955,7.091,7.091,0,0,0,1.451-1.633A2.613,2.613,0,0,0,31.5,2.63,2.325,2.325,0,0,0,29.846,1.8a8.094,8.094,0,0,0-5.22,1.628A9.739,9.739,0,0,0,22.2,5.918V4.824a2.746,2.746,0,0,0-.6-1.709L19.311.256a.684.684,0,0,0-1.068.855l2.286,2.855a1.378,1.378,0,0,1,.3.856V7.265a6.867,6.867,0,0,0-6.066-.722A7.135,7.135,0,0,0,9.9,13.28c-.174,3.452.957,8.31,3.886,11.386a9.253,9.253,0,0,0,1.569,1.316H8.521a7.525,7.525,0,0,0-7.5,8.06,7.658,7.658,0,0,0,7.715,6.982h31.24a2.051,2.051,0,1,0,0-4.1h-.752A9.846,9.846,0,0,1,39.221,30.085ZM22.524,8.13a8.6,8.6,0,0,1,2.89-3.583,7.327,7.327,0,0,1,3.893-1.4,3.683,3.683,0,0,1,.4.021,1.056,1.056,0,0,1,.715.3c.375.485-.129,1.325-.233,1.489a6.769,6.769,0,0,1-4.123,2.769,16.615,16.615,0,0,1-3.562.466Zm-7.744,15.6c-2.633-2.767-3.666-7.316-3.511-10.372A5.812,5.812,0,0,1,15.19,7.845c1.9-.626,4.407-.427,5.724,1.429a.684.684,0,0,0,.292.22.744.744,0,0,0,.137.047h.008a.654.654,0,0,0,.161.031c.008,0,.014,0,.023,0s.016,0,.025,0A19.4,19.4,0,0,0,26.4,9.05a9.363,9.363,0,0,0,2.219-.868,5.838,5.838,0,0,1,3.135,5.168c.155,3.056-.878,7.607-3.511,10.374a6.745,6.745,0,0,1-5.015,2.259H19.795a6.747,6.747,0,0,1-5.015-2.256ZM40.657,38.974a.684.684,0,0,1-.684.684H8.734a6.284,6.284,0,0,1-6.351-5.711,6.154,6.154,0,0,1,6.139-6.6H39.973a.684.684,0,1,1,0,1.367H8.521A4.792,4.792,0,0,0,3.735,33.38a4.653,4.653,0,0,0,1.356,3.382,5.06,5.06,0,0,0,3.6,1.528h31.28a.684.684,0,0,1,.684.684ZM8.693,36.922a3.687,3.687,0,0,1-2.622-1.115A3.3,3.3,0,0,1,5.1,33.415a3.426,3.426,0,0,1,3.419-3.33H37.756a11.549,11.549,0,0,0,0,6.837Z" transform="translate(-0.999 0)" fill="#fff"/>
        <path id="Shape-2" data-name="Shape" d="M12.046,47.368H37.138c.577,0,1.045-.306,1.045-.684S37.715,46,37.138,46H12.046c-.577,0-1.046.306-1.046.684S11.468,47.368,12.046,47.368Z" transform="translate(-3.475 -12.683)" fill="#fff"/>
      </g>
    </g>
  </g>
</svg>
