<svg xmlns="http://www.w3.org/2000/svg" width="80" height="80" viewBox="0 0 80 80">
  <g id="Sociosanitaria" transform="translate(-790 -3194)">
    <circle id="Ellipse_7" data-name="Ellipse 7" cx="40" cy="40" r="40" transform="translate(790 3194)" fill="#dc582a"/>
    <g id="Group_6269" data-name="Group 6269" transform="translate(809.145 3213.145)">
      <path id="Path_4324" data-name="Path 4324" d="M5.026,45.026H44A1.026,1.026,0,0,0,45.026,44V19.385A1.026,1.026,0,0,0,44,18.359H38.872V9.128A1.026,1.026,0,0,0,37.846,8.1H32.718V7.077A3.077,3.077,0,0,0,29.641,4H19.385a3.077,3.077,0,0,0-3.077,3.077V8.1H11.179a1.026,1.026,0,0,0-1.026,1.026v9.231H5.026A1.026,1.026,0,0,0,4,19.385V44A1.026,1.026,0,0,0,5.026,45.026ZM38.872,20.41h4.1V42.974h-4.1ZM27.59,42.974H21.436V35.795H27.59Zm-9.231-35.9a1.026,1.026,0,0,1,1.026-1.026H29.641a1.026,1.026,0,0,1,1.026,1.026V17.333a1.026,1.026,0,0,1-1.026,1.026H19.385a1.026,1.026,0,0,1-1.026-1.026Zm-6.154,3.077h4.1v7.179a3.077,3.077,0,0,0,3.077,3.077H29.641a3.077,3.077,0,0,0,3.077-3.077V10.154h4.1V42.974H29.641V34.769a1.026,1.026,0,0,0-1.026-1.026H20.41a1.026,1.026,0,0,0-1.026,1.026v8.205H12.205ZM6.051,20.41h4.1V42.974h-4.1Z" transform="translate(-4 -4)" fill="#fff"/>
      <path id="Path_4325" data-name="Path 4325" d="M21.026,13.128h2.051v2.051a1.026,1.026,0,0,0,2.051,0V13.128h2.051a1.026,1.026,0,0,0,0-2.051H25.128V9.026a1.026,1.026,0,1,0-2.051,0v2.051H21.026a1.026,1.026,0,1,0,0,2.051Z" transform="translate(-3.59 -3.897)" fill="#fff"/>
      <path id="Path_4326" data-name="Path 4326" d="M17.026,25.051h2.051a1.026,1.026,0,0,0,0-2.051H17.026a1.026,1.026,0,1,0,0,2.051Z" transform="translate(-3.692 -3.513)" fill="#fff"/>
      <path id="Path_4327" data-name="Path 4327" d="M20.1,29.026A1.026,1.026,0,0,0,19.077,28H17.026a1.026,1.026,0,1,0,0,2.051h2.051A1.026,1.026,0,0,0,20.1,29.026Z" transform="translate(-3.692 -3.385)" fill="#fff"/>
      <path id="Path_4328" data-name="Path 4328" d="M23.026,25.051h2.051a1.026,1.026,0,1,0,0-2.051H23.026a1.026,1.026,0,1,0,0,2.051Z" transform="translate(-3.538 -3.513)" fill="#fff"/>
      <path id="Path_4329" data-name="Path 4329" d="M23.026,30.051h2.051a1.026,1.026,0,1,0,0-2.051H23.026a1.026,1.026,0,1,0,0,2.051Z" transform="translate(-3.538 -3.385)" fill="#fff"/>
      <path id="Path_4330" data-name="Path 4330" d="M29.026,25.051h2.051a1.026,1.026,0,1,0,0-2.051H29.026a1.026,1.026,0,1,0,0,2.051Z" transform="translate(-3.385 -3.513)" fill="#fff"/>
      <path id="Path_4331" data-name="Path 4331" d="M29.026,30.051h2.051a1.026,1.026,0,1,0,0-2.051H29.026a1.026,1.026,0,1,0,0,2.051Z" transform="translate(-3.385 -3.385)" fill="#fff"/>
    </g>
  </g>
</svg>
