<svg xmlns="http://www.w3.org/2000/svg" xmlns:xlink="http://www.w3.org/1999/xlink" id="Livello_1" x="0px" y="0px" viewBox="0 0 60 31.9" style="enable-background:new 0 0 60 31.9;" xml:space="preserve"><g>	<path d="M9.4,26.3v5.5H0V0.1l15,0.1c3.6,0,6.7,1.3,9.3,3.8c2.5,2.5,3.8,5.6,3.8,9.3c0,1.8-0.4,3.4-1,5c-0.7,1.6-1.6,2.9-2.8,4.1  c2,0,4.9-0.9,6-1.3l-6.7,10.8c-1.8,0-4.8-0.1-8.2-1.6C12.6,29.1,10.7,27.5,9.4,26.3z M15,9.7H9.4v7.2H15c1,0,1.9-0.4,2.5-1.1  c0.7-0.7,1.1-1.6,1.1-2.5c0-1-0.4-1.9-1.1-2.6C16.9,10,16,9.7,15,9.7z"></path>	<path d="M48.3,15.5v6.9h-1h-1c-1.8,0-3.2-0.6-4.5-1.9s-1.9-2.7-1.9-4.5s0.6-3.3,1.9-4.5s2.7-1.8,4.5-1.8c2.3,0,4.4,1.2,5.5,3.2  L60,8.1c-1.4-2.5-3.4-4.4-5.8-5.8s-5.2-2.2-8-2.2c-4.4,0-8.1,1.6-11.2,4.7s-4.7,6.9-4.7,11.2s1.6,8.1,4.7,11.2s6.9,4.7,11.2,4.7H50  l10-16.4C60,15.5,48.3,15.5,48.3,15.5z"></path></g></svg>